<svg width="134" height="26" viewBox="0 0 134 26" fill="none" xmlns="http://www.w3.org/2000/svg">
<path d="M2.85601 11.2857H6.28501V19.2857H2.85601V11.2857ZM10.2855 11.2857H13.7145V19.2857H10.2855V11.2857ZM0.570007 21.5714H23.43V25H0.570007V21.5714ZM17.715 11.2857H21.144V19.2857H17.715V11.2857ZM12 1L0.570007 6.71429V9H23.43V6.71429L12 1Z" fill="#F0B90B"/>
<path d="M29.4203 5.44531H35.6078C36.725 5.44531 37.6703 5.61361 38.4437 5.9502C39.2172 6.28678 39.7973 6.75586 40.184 7.35742C40.5707 7.95182 40.7641 8.64648 40.7641 9.44141C40.7641 10.3223 40.5062 11.0492 39.9906 11.6221C39.4822 12.195 38.809 12.5781 37.9711 12.7715V12.9219C38.5727 12.9505 39.1312 13.1224 39.6469 13.4375C40.1697 13.7526 40.5886 14.193 40.9037 14.7588C41.226 15.3174 41.3871 15.9655 41.3871 16.7031C41.3871 17.541 41.1794 18.2822 40.7641 18.9268C40.3559 19.5713 39.7471 20.0798 38.9379 20.4521C38.1358 20.8174 37.1618 21 36.016 21H29.4203V5.44531ZM35.3715 18.3359C36.2738 18.3359 36.9434 18.1676 37.3803 17.8311C37.8171 17.4873 38.0355 17.0111 38.0355 16.4023C38.0355 15.9655 37.9281 15.5788 37.7133 15.2422C37.5056 14.9056 37.2084 14.6442 36.8217 14.458C36.435 14.2646 35.9802 14.168 35.4574 14.168H32.643V18.3359H35.3715ZM35.1352 11.9551C35.5863 11.9551 35.9909 11.8763 36.349 11.7188C36.7071 11.554 36.9864 11.3213 37.1869 11.0205C37.3946 10.7197 37.4984 10.3652 37.4984 9.95703C37.4984 9.38411 37.2943 8.92578 36.8861 8.58203C36.4851 8.23828 35.9229 8.06641 35.1996 8.06641H32.643V11.9551H35.1352ZM43.0973 21L48.4898 5.44531H52.6363L58.0074 21H54.5484L53.3775 17.4121H47.7486L46.5777 21H43.0973ZM52.5611 14.8984L50.6168 8.94727H50.5094L48.565 14.8984H52.5611ZM60.3191 5.44531H63.5418V18.3359H70.2449V21H60.3191V5.44531ZM72.4062 21L77.7988 5.44531H81.9453L87.3164 21H83.8574L82.6865 17.4121H77.0576L75.8867 21H72.4062ZM81.8701 14.8984L79.9258 8.94727H79.8184L77.874 14.8984H81.8701ZM102.605 21H99.8117L92.9797 11.1172H92.8508V21H89.6281V5.44531H92.4641L99.2531 15.3281H99.4035V5.44531H102.605V21ZM116.174 10.8594C116.088 10.2936 115.891 9.80306 115.583 9.3877C115.275 8.96517 114.882 8.6429 114.402 8.4209C113.922 8.19889 113.381 8.08789 112.78 8.08789C111.97 8.08789 111.261 8.29199 110.653 8.7002C110.051 9.10124 109.586 9.68848 109.256 10.4619C108.927 11.2282 108.762 12.1484 108.762 13.2227C108.762 14.3184 108.927 15.2529 109.256 16.0264C109.586 16.7926 110.051 17.3727 110.653 17.7666C111.254 18.1605 111.956 18.3574 112.758 18.3574C113.653 18.3574 114.405 18.1211 115.014 17.6484C115.63 17.1758 116.017 16.5241 116.174 15.6934L119.44 15.7148C119.318 16.696 118.971 17.6055 118.398 18.4434C117.825 19.2812 117.051 19.9544 116.078 20.4629C115.104 20.9642 113.983 21.2148 112.715 21.2148C111.319 21.2148 110.073 20.8997 108.977 20.2695C107.881 19.6322 107.022 18.7119 106.399 17.5088C105.783 16.3057 105.475 14.877 105.475 13.2227C105.475 11.5755 105.787 10.1504 106.41 8.94727C107.04 7.73698 107.903 6.81673 108.998 6.18652C110.101 5.54915 111.34 5.23047 112.715 5.23047C113.911 5.23047 114.993 5.45247 115.959 5.89648C116.926 6.34049 117.71 6.98861 118.312 7.84082C118.921 8.68587 119.297 9.69206 119.44 10.8594H116.174ZM122.246 5.44531H132.687V8.10938H125.468V11.8906H132.15V14.5547H125.468V18.3359H132.709V21H122.246V5.44531Z" fill="#F0B90B"/>
</svg>
