<svg width="24" height="24" viewBox="0 0 24 24" fill="none" xmlns="http://www.w3.org/2000/svg">
<path d="M19.0687 19.8735C18.1972 21.1755 17.2732 22.446 15.8662 22.467C14.46 22.4985 14.0085 21.6375 12.4125 21.6375C10.806 21.6375 10.3125 22.446 8.97898 22.4985C7.60348 22.551 6.56398 21.1125 5.68198 19.842C3.88723 17.25 2.51248 12.4725 4.35973 9.2595C4.791 8.48349 5.41628 7.83269 6.17442 7.37074C6.93256 6.90878 7.79761 6.65148 8.68498 6.624C10.029 6.603 11.31 7.53675 12.1395 7.53675C12.9585 7.53675 14.5125 6.414 16.14 6.582C16.8943 6.60893 17.6321 6.81066 18.2952 7.1713C18.9584 7.53194 19.5287 8.04165 19.9612 8.66025C19.2796 9.08419 18.7155 9.6728 18.321 10.3719C17.9265 11.071 17.7143 11.8581 17.7037 12.6608C17.7077 13.5653 17.9762 14.4489 18.4763 15.2026C18.9763 15.9564 19.6859 16.5474 20.5177 16.9028C20.1787 17.957 19.6908 18.9573 19.0687 19.8735ZM13.074 3.075C13.8691 2.18154 14.9709 1.61941 16.161 1.5C16.2081 2.10268 16.1359 2.70875 15.9485 3.2835C15.7612 3.85825 15.4623 4.3904 15.069 4.8495C14.7044 5.32205 14.2345 5.70292 13.6968 5.96178C13.159 6.22063 12.5682 6.35032 11.9715 6.3405C11.9308 5.75038 12.0073 5.15805 12.1965 4.59762C12.3857 4.03718 12.684 3.51971 13.074 3.075Z" fill="#EBECEF"/>
</svg>
