<svg width="122" height="120" viewBox="0 0 122 120" fill="none" xmlns="http://www.w3.org/2000/svg">
<rect x="18" y="17.5" width="86" height="86" rx="43" fill="#2EBD85" fill-opacity="0.33"/>
<path d="M33 60.5C33 45.036 45.536 32.5 61 32.5C76.464 32.5 89 45.036 89 60.5C89 75.964 76.464 88.5 61 88.5C45.536 88.5 33 75.964 33 60.5Z" fill="#2EBD85"/>
<path fill-rule="evenodd" clip-rule="evenodd" d="M78.501 47.87C79.0166 48.3857 79.3062 49.0851 79.3062 49.8143C79.3062 50.5435 79.0166 51.2428 78.501 51.7585L57.8889 72.3707C57.6165 72.6432 57.2931 72.8593 56.9371 73.0068C56.5812 73.1542 56.1997 73.2301 55.8144 73.2301C55.4292 73.2301 55.0477 73.1542 54.6918 73.0068C54.3358 72.8593 54.0124 72.6432 53.74 72.3707L43.499 62.1315C43.2364 61.8779 43.0269 61.5744 42.8827 61.2389C42.7386 60.9034 42.6628 60.5425 42.6596 60.1774C42.6564 59.8123 42.726 59.4501 42.8643 59.1122C43.0025 58.7742 43.2067 58.4672 43.4649 58.209C43.7231 57.9508 44.0302 57.7466 44.3682 57.6083C44.7061 57.47 45.0682 57.4004 45.4334 57.4036C45.7985 57.4068 46.1594 57.4826 46.4949 57.6268C46.8304 57.7709 47.1338 57.9804 47.3875 58.243L55.8135 66.669L74.6107 47.87C74.8661 47.6145 75.1693 47.4118 75.5031 47.2735C75.8368 47.1352 76.1946 47.064 76.5559 47.064C76.9171 47.064 77.2749 47.1352 77.6087 47.2735C77.9424 47.4118 78.2456 47.6145 78.501 47.87Z" fill="#EAECEF"/>
<line x1="13" y1="115.5" x2="13" y2="119.5" stroke="#F0B90B" stroke-width="2"/>
<line x1="22.5061" y1="97.2071" x2="15.435" y2="104.278" stroke="#F0B90B" stroke-width="2"/>
<line x1="10.7782" y1="109.207" x2="3.70708" y2="116.278" stroke="#F0B90B" stroke-width="2"/>
<line x1="10.3639" y1="104.278" x2="3.29287" y2="97.2073" stroke="#F0B90B" stroke-width="2"/>
<line x1="23.0918" y1="117.006" x2="16.0208" y2="109.935" stroke="#F0B90B" stroke-width="2"/>
<line x1="13" y1="93.5" x2="13" y2="97.5" stroke="#F0B90B" stroke-width="2"/>
<line x1="4" y1="106.5" y2="106.5" stroke="#F0B90B" stroke-width="2"/>
<line x1="26" y1="106.5" x2="22" y2="106.5" stroke="#F0B90B" stroke-width="2"/>
<line x1="14.3846" y1="21.0386" x2="14.3846" y2="23.5001" stroke="#3388F4" stroke-width="2"/>
<line x1="20.1218" y1="10.0533" x2="15.7704" y2="14.4047" stroke="#3388F4" stroke-width="2"/>
<line x1="12.9047" y1="17.4381" x2="8.55325" y2="21.7895" stroke="#3388F4" stroke-width="2"/>
<line x1="12.1058" y1="14.4049" x2="7.75439" y2="10.0534" stroke="#3388F4" stroke-width="2"/>
<line x1="19.9384" y1="22.2374" x2="15.587" y2="17.886" stroke="#3388F4" stroke-width="2"/>
<line x1="14.3846" y1="7.5" x2="14.3846" y2="9.96154" stroke="#3388F4" stroke-width="2"/>
<line x1="8.46155" y1="15.8848" x2="6.00001" y2="15.8848" stroke="#3388F4" stroke-width="2"/>
<line x1="22" y1="15.8848" x2="19.5385" y2="15.8848" stroke="#3388F4" stroke-width="2"/>
<line x1="109.077" y1="20.8081" x2="109.077" y2="24.5004" stroke="#FF693D" stroke-width="2"/>
<line x1="117.829" y1="3.97615" x2="111.302" y2="10.5033" stroke="#FF693D" stroke-width="2"/>
<line x1="107.003" y1="15.0538" x2="100.476" y2="21.5809" stroke="#FF693D" stroke-width="2"/>
<line x1="106.512" y1="10.5035" x2="99.9852" y2="3.97636" stroke="#FF693D" stroke-width="2"/>
<line x1="118.261" y1="22.2525" x2="111.734" y2="15.7254" stroke="#FF693D" stroke-width="2"/>
<line x1="109.077" y1="0.5" x2="109.077" y2="4.19231" stroke="#FF693D" stroke-width="2"/>
<line x1="100.692" y1="12.5771" x2="97" y2="12.5771" stroke="#FF693D" stroke-width="2"/>
<line x1="121" y1="12.5771" x2="117.308" y2="12.5771" stroke="#FF693D" stroke-width="2"/>
<line x1="112.231" y1="108.423" x2="112.231" y2="111.5" stroke="#8CB4FF" stroke-width="2"/>
<line x1="119.476" y1="94.5147" x2="114.036" y2="99.954" stroke="#8CB4FF" stroke-width="2"/>
<line x1="110.454" y1="103.746" x2="105.015" y2="109.185" stroke="#8CB4FF" stroke-width="2"/>
<line x1="109.809" y1="99.9542" x2="104.37" y2="94.5149" stroke="#8CB4FF" stroke-width="2"/>
<line x1="119.6" y1="109.745" x2="114.16" y2="104.305" stroke="#8CB4FF" stroke-width="2"/>
<line x1="112.231" y1="91.5" x2="112.231" y2="94.5769" stroke="#8CB4FF" stroke-width="2"/>
<line x1="105.077" y1="101.731" x2="102" y2="101.731" stroke="#8CB4FF" stroke-width="2"/>
<line x1="122" y1="101.731" x2="118.923" y2="101.731" stroke="#8CB4FF" stroke-width="2"/>
</svg>
